# This file uses centimeters as units for non-parametric coordinates.

mtllib SingleGem.mtl
g default
v -174.582748 554.104099 186.727591
v -174.582748 669.104100 186.727572
v -174.582748 594.104091 132.607973
v -136.314406 634.104085 94.339627
v -174.582748 651.604086 100.136200
v -151.621741 669.104091 131.294799
v -136.314406 594.104094 148.459242
v -82.194798 634.104094 148.459235
v -113.353400 651.604090 125.498227
v -119.149976 669.104096 163.766565
v -120.463138 594.104100 186.727584
v -82.194798 634.104107 224.995920
v -87.991374 651.604100 186.727575
v -119.149976 669.104104 209.688579
v -136.314406 594.104106 224.995927
v -136.314406 634.104116 279.115528
v -113.353400 651.604110 247.956923
v -151.621741 669.104109 242.160345
v -174.582748 594.104109 240.847195
v -212.851091 634.104116 279.115528
v -174.582748 651.604114 273.318950
v -197.543755 669.104109 242.160345
v -212.851091 594.104106 224.995927
v -266.970699 634.104107 224.995920
v -235.812097 651.604110 247.956923
v -230.015521 669.104104 209.688579
v -228.702359 594.104100 186.727584
v -266.970699 634.104094 148.459235
v -261.174123 651.604100 186.727575
v -230.015521 669.104096 163.766565
v -212.851091 594.104094 148.459242
v -212.851091 634.104085 94.339627
v -235.812097 651.604090 125.498227
v -197.543755 669.104091 131.294799
vn 0.239060 -0.780869 -0.577143
vn 0.239060 -0.780869 -0.577143
vn 0.239060 -0.780869 -0.577143
vn 0.239060 -0.780869 -0.577143
vn 0.510937 -0.691293 -0.510937
vn 0.510937 -0.691293 -0.510937
vn 0.510937 -0.691293 -0.510937
vn 0.671242 0.314433 -0.671242
vn 0.671242 0.314433 -0.671242
vn 0.671242 0.314433 -0.671242
vn 0.251999 0.752577 -0.608379
vn 0.251999 0.752577 -0.608379
vn 0.251999 0.752577 -0.608379
vn 0.251999 0.752577 -0.608379
vn 0.346265 0.871895 -0.346266
vn 0.346265 0.871895 -0.346266
vn 0.346265 0.871895 -0.346266
vn 0.577143 -0.780869 -0.239060
vn 0.577143 -0.780869 -0.239060
vn 0.577143 -0.780869 -0.239060
vn 0.577143 -0.780869 -0.239060
vn 0.722574 -0.691293 0.000000
vn 0.722574 -0.691293 0.000000
vn 0.722574 -0.691293 0.000000
vn 0.949280 0.314433 -0.000000
vn 0.949280 0.314433 -0.000000
vn 0.949280 0.314433 -0.000000
vn 0.608379 0.752577 -0.251999
vn 0.608379 0.752577 -0.251999
vn 0.608379 0.752577 -0.251999
vn 0.608379 0.752577 -0.251999
vn 0.489693 0.871895 -0.000000
vn 0.489693 0.871895 -0.000000
vn 0.489693 0.871895 -0.000000
vn 0.577143 -0.780869 0.239061
vn 0.577143 -0.780869 0.239061
vn 0.577143 -0.780869 0.239061
vn 0.577143 -0.780869 0.239061
vn 0.510937 -0.691293 0.510937
vn 0.510937 -0.691293 0.510937
vn 0.510937 -0.691293 0.510937
vn 0.671242 0.314433 0.671242
vn 0.671242 0.314433 0.671242
vn 0.671242 0.314433 0.671242
vn 0.608379 0.752577 0.251999
vn 0.608379 0.752577 0.251999
vn 0.608379 0.752577 0.251999
vn 0.608379 0.752577 0.251999
vn 0.346265 0.871895 0.346265
vn 0.346265 0.871895 0.346265
vn 0.346265 0.871895 0.346265
vn 0.239060 -0.780869 0.577143
vn 0.239060 -0.780869 0.577143
vn 0.239060 -0.780869 0.577143
vn 0.239060 -0.780869 0.577143
vn 0.000000 -0.691293 0.722575
vn 0.000000 -0.691293 0.722575
vn 0.000000 -0.691293 0.722575
vn 0.000000 0.314433 0.949280
vn 0.000000 0.314433 0.949280
vn 0.000000 0.314433 0.949280
vn 0.251999 0.752577 0.608379
vn 0.251999 0.752577 0.608379
vn 0.251999 0.752577 0.608379
vn 0.251999 0.752577 0.608379
vn 0.000000 0.871895 0.489693
vn 0.000000 0.871895 0.489693
vn 0.000000 0.871895 0.489693
vn -0.239060 -0.780869 0.577143
vn -0.239060 -0.780869 0.577143
vn -0.239060 -0.780869 0.577143
vn -0.239060 -0.780869 0.577143
vn -0.510937 -0.691293 0.510937
vn -0.510937 -0.691293 0.510937
vn -0.510937 -0.691293 0.510937
vn -0.671242 0.314433 0.671242
vn -0.671242 0.314433 0.671242
vn -0.671242 0.314433 0.671242
vn -0.251999 0.752577 0.608379
vn -0.251999 0.752577 0.608379
vn -0.251999 0.752577 0.608379
vn -0.251999 0.752577 0.608379
vn -0.346265 0.871895 0.346265
vn -0.346265 0.871895 0.346265
vn -0.346265 0.871895 0.346265
vn -0.577143 -0.780869 0.239061
vn -0.577143 -0.780869 0.239061
vn -0.577143 -0.780869 0.239061
vn -0.577143 -0.780869 0.239061
vn -0.722574 -0.691293 0.000000
vn -0.722574 -0.691293 0.000000
vn -0.722574 -0.691293 0.000000
vn -0.949280 0.314433 -0.000000
vn -0.949280 0.314433 -0.000000
vn -0.949280 0.314433 -0.000000
vn -0.608379 0.752577 0.251999
vn -0.608379 0.752577 0.251999
vn -0.608379 0.752577 0.251999
vn -0.608379 0.752577 0.251999
vn -0.489693 0.871895 -0.000000
vn -0.489693 0.871895 -0.000000
vn -0.489693 0.871895 -0.000000
vn -0.577143 -0.780869 -0.239060
vn -0.577143 -0.780869 -0.239060
vn -0.577143 -0.780869 -0.239060
vn -0.577143 -0.780869 -0.239060
vn -0.510937 -0.691293 -0.510937
vn -0.510937 -0.691293 -0.510937
vn -0.510937 -0.691293 -0.510937
vn -0.671242 0.314433 -0.671242
vn -0.671242 0.314433 -0.671242
vn -0.671242 0.314433 -0.671242
vn -0.608379 0.752577 -0.251999
vn -0.608379 0.752577 -0.251999
vn -0.608379 0.752577 -0.251999
vn -0.608379 0.752577 -0.251999
vn -0.346265 0.871895 -0.346266
vn -0.346265 0.871895 -0.346266
vn -0.346265 0.871895 -0.346266
vn -0.239060 -0.780869 -0.577143
vn -0.239060 -0.780869 -0.577143
vn -0.239060 -0.780869 -0.577143
vn -0.239060 -0.780869 -0.577143
vn 0.000000 -0.691293 -0.722574
vn 0.000000 -0.691293 -0.722574
vn 0.000000 -0.691293 -0.722574
vn 0.000000 0.314433 -0.949280
vn 0.000000 0.314433 -0.949280
vn 0.000000 0.314433 -0.949280
vn -0.251999 0.752577 -0.608379
vn -0.251999 0.752577 -0.608379
vn -0.251999 0.752577 -0.608379
vn -0.251999 0.752577 -0.608379
vn 0.000000 0.871895 -0.489693
vn 0.000000 0.871895 -0.489693
vn 0.000000 0.871895 -0.489693
vn 0.000000 1.000000 -0.000000
vn 0.000000 1.000000 -0.000000
vn 0.000000 1.000000 -0.000000
vn 0.000000 1.000000 -0.000000
vn 0.000000 1.000000 -0.000000
vn 0.000000 1.000000 -0.000000
vn 0.000000 1.000000 -0.000000
vn 0.000000 1.000000 -0.000000
vn 0.000000 1.000000 -0.000000
vn 0.000000 1.000000 -0.000000
vn 0.000000 1.000000 -0.000000
vn 0.000000 1.000000 -0.000000
vn 0.000000 1.000000 -0.000000
vn 0.000000 1.000000 -0.000000
vn 0.000000 1.000000 -0.000000
vn 0.000000 1.000000 -0.000000
vn 0.000000 1.000000 -0.000000
vn 0.000000 1.000000 -0.000000
vn 0.000000 1.000000 -0.000000
vn 0.000000 1.000000 -0.000000
vn 0.000000 1.000000 -0.000000
vn 0.000000 1.000000 -0.000000
vn 0.000000 1.000000 -0.000000
vn 0.000000 1.000000 -0.000000
s off
g Gem
usemtl CylinderSG
f 7//1 1//2 3//3 4//4
f 7//5 4//6 8//7
f 8//8 4//9 9//10
f 9//11 4//12 5//13 6//14
f 9//15 6//16 10//17
f 11//18 1//19 7//20 8//21
f 11//22 8//23 12//24
f 12//25 8//26 13//27
f 13//28 8//29 9//30 10//31
f 13//32 10//33 14//34
f 15//35 1//36 11//37 12//38
f 15//39 12//40 16//41
f 16//42 12//43 17//44
f 17//45 12//46 13//47 14//48
f 17//49 14//50 18//51
f 19//52 1//53 15//54 16//55
f 19//56 16//57 20//58
f 20//59 16//60 21//61
f 21//62 16//63 17//64 18//65
f 21//66 18//67 22//68
f 23//69 1//70 19//71 20//72
f 23//73 20//74 24//75
f 24//76 20//77 25//78
f 25//79 20//80 21//81 22//82
f 25//83 22//84 26//85
f 27//86 1//87 23//88 24//89
f 27//90 24//91 28//92
f 28//93 24//94 29//95
f 29//96 24//97 25//98 26//99
f 29//100 26//101 30//102
f 31//103 1//104 27//105 28//106
f 31//107 28//108 32//109
f 32//110 28//111 33//112
f 33//113 28//114 29//115 30//116
f 33//117 30//118 34//119
f 3//120 1//121 31//122 32//123
f 3//124 32//125 4//126
f 4//127 32//128 5//129
f 5//130 32//131 33//132 34//133
f 5//134 34//135 6//136
f 6//137 34//138 2//139
f 2//140 10//141 6//142
f 2//143 14//144 10//145
f 2//146 18//147 14//148
f 2//149 22//150 18//151
f 2//152 26//153 22//154
f 2//155 30//156 26//157
f 2//158 34//159 30//160
